<svg width="680" height="395" viewBox="-10 -10 680 395" xmlns="http://www.w3.org/2000/svg" class="schemascii"><g class="wire"><polyline points="465,270 465,0 0,0" fill="transparent" stroke-width="2" stroke="black"></polyline><polyline points="510,240 465,240" fill="transparent" stroke-width="2" stroke="black"></polyline><polyline points="510,150 465,150" fill="transparent" stroke-width="2" stroke="black"></polyline><polyline points="510,60 465,60" fill="transparent" stroke-width="2" stroke="black"></polyline><polyline points="645,0 465,0" fill="transparent" stroke-width="2" stroke="black"></polyline><polyline points="285,15 285,0" fill="transparent" stroke-width="2" stroke="black"></polyline></g><g class="wire"><polyline points="150,120 150,45 120,45" fill="transparent" stroke-width="2" stroke="black"></polyline></g><g class="wire"><polyline points="510,45 390,45" fill="transparent" stroke-width="2" stroke="black"></polyline></g><g class="wire"><polyline points="180,60 120,60" fill="transparent" stroke-width="2" stroke="black"></polyline></g><g class="wire"><polyline points="180,75 120,75" fill="transparent" stroke-width="2" stroke="black"></polyline></g><g class="wire"><polyline points="510,75 495,75" fill="transparent" stroke-width="2" stroke="black"></polyline></g><g class="wire"><polyline points="180,90 120,90" fill="transparent" stroke-width="2" stroke="black"></polyline></g><g class="wire"><polyline points="180,105 120,105" fill="transparent" stroke-width="2" stroke="black"></polyline></g><g class="wire"><polyline points="510,135 390,135" fill="transparent" stroke-width="2" stroke="black"></polyline></g><g class="wire"><polyline points="510,165 495,165" fill="transparent" stroke-width="2" stroke="black"></polyline></g><g class="wire"><polyline points="510,225 390,225" fill="transparent" stroke-width="2" stroke="black"></polyline></g><g class="wire"><polyline points="510,255 495,255" fill="transparent" stroke-width="2" stroke="black"></polyline></g><g class="component U"><rect x="0" y="30" width="105" height="90" stroke-width="2" stroke="black" fill="transparent"></rect><polyline points="120,45 105,45" fill="transparent" stroke-width="2" stroke="black"></polyline><polyline points="120,60 105,60" fill="transparent" stroke-width="2" stroke="black"></polyline><polyline points="120,75 105,75" fill="transparent" stroke-width="2" stroke="black"></polyline><polyline points="120,90 105,90" fill="transparent" stroke-width="2" stroke="black"></polyline><polyline points="120,105 105,105" fill="transparent" stroke-width="2" stroke="black"></polyline><text x="52.5" y="75" text-anchor="middle" font-size="15" fill="black"><tspan class="part-num">drone_uart</tspan></text><text x="52.5" y="60" text-anchor="middle" font-size="15" fill="black"><tspan class="cmp-id">U2</tspan></text><text x="120" y="105" text-anchor="middle" font-size="15" fill="black" class="pin-label">RX</text><text x="120" y="90" text-anchor="middle" font-size="15" fill="black" class="pin-label">TX</text><text x="120" y="75" text-anchor="middle" font-size="15" fill="black" class="pin-label">3V3</text><text x="120" y="60" text-anchor="middle" font-size="15" fill="black" class="pin-label">5V</text><text x="120" y="45" text-anchor="middle" font-size="15" fill="black" class="pin-label">GND</text></g><g class="component U"><rect x="195" y="30" width="180" height="255" stroke-width="2" stroke="black" fill="transparent"></rect><polyline points="285,15 285,30" fill="transparent" stroke-width="2" stroke="black"></polyline><polyline points="390,45 375,45" fill="transparent" stroke-width="2" stroke="black"></polyline><polyline points="390,135 375,135" fill="transparent" stroke-width="2" stroke="black"></polyline><polyline points="390,225 375,225" fill="transparent" stroke-width="2" stroke="black"></polyline><polyline points="285,300 285,285" fill="transparent" stroke-width="2" stroke="black"></polyline><polyline points="180,60 195,60" fill="transparent" stroke-width="2" stroke="black"></polyline><polyline points="180,75 195,75" fill="transparent" stroke-width="2" stroke="black"></polyline><polyline points="180,90 195,90" fill="transparent" stroke-width="2" stroke="black"></polyline><polyline points="180,105 195,105" fill="transparent" stroke-width="2" stroke="black"></polyline><text x="285" y="157.5" text-anchor="middle" font-size="15" fill="black"><tspan class="part-num">ESP32</tspan></text><text x="285" y="142.5" text-anchor="middle" font-size="15" fill="black"><tspan class="cmp-id">U1</tspan></text><text x="180" y="60" text-anchor="middle" font-size="15" fill="black" class="pin-label">5V</text><text x="180" y="75" text-anchor="middle" font-size="15" fill="black" class="pin-label">3V3</text><text x="180" y="90" text-anchor="middle" font-size="15" fill="black" class="pin-label">16</text><text x="180" y="105" text-anchor="middle" font-size="15" fill="black" class="pin-label">17</text><text x="285" y="300" text-anchor="start" font-size="15" fill="black" class="pin-label"></text><text x="390" y="225" text-anchor="middle" font-size="15" fill="black" class="pin-label">25</text><text x="390" y="135" text-anchor="middle" font-size="15" fill="black" class="pin-label">26</text><text x="390" y="45" text-anchor="middle" font-size="15" fill="black" class="pin-label">27</text><text x="285" y="15" text-anchor="start" font-size="15" fill="black" class="pin-label">VBAT</text></g><g class="component U"><rect x="525" y="30" width="120" height="60" stroke-width="2" stroke="black" fill="transparent"></rect><polyline points="510,45 525,45" fill="transparent" stroke-width="2" stroke="black"></polyline><polyline points="510,60 525,60" fill="transparent" stroke-width="2" stroke="black"></polyline><polyline points="510,75 525,75" fill="transparent" stroke-width="2" stroke="black"></polyline><text x="585" y="60" text-anchor="middle" font-size="15" fill="black"><tspan class="part-num">servo</tspan></text><text x="585" y="45" text-anchor="middle" font-size="15" fill="black"><tspan class="cmp-id">U3</tspan></text></g><g class="component U"><rect x="525" y="120" width="120" height="60" stroke-width="2" stroke="black" fill="transparent"></rect><polyline points="510,135 525,135" fill="transparent" stroke-width="2" stroke="black"></polyline><polyline points="510,150 525,150" fill="transparent" stroke-width="2" stroke="black"></polyline><polyline points="510,165 525,165" fill="transparent" stroke-width="2" stroke="black"></polyline><text x="585" y="150" text-anchor="middle" font-size="15" fill="black"><tspan class="part-num">servo</tspan></text><text x="585" y="135" text-anchor="middle" font-size="15" fill="black"><tspan class="cmp-id">U4</tspan></text></g><g class="component U"><rect x="525" y="210" width="120" height="60" stroke-width="2" stroke="black" fill="transparent"></rect><polyline points="510,225 525,225" fill="transparent" stroke-width="2" stroke="black"></polyline><polyline points="510,240 525,240" fill="transparent" stroke-width="2" stroke="black"></polyline><polyline points="510,255 525,255" fill="transparent" stroke-width="2" stroke="black"></polyline><text x="585" y="240" text-anchor="middle" font-size="15" fill="black"><tspan class="part-num">servo</tspan></text><text x="585" y="225" text-anchor="middle" font-size="15" fill="black"><tspan class="cmp-id">U5</tspan></text></g><g class="component G"><polyline points="497.4,97.5 492.6,97.5" fill="transparent" stroke-width="2" stroke="black"></polyline><polyline points="499.95,93.75 490.05,93.75" fill="transparent" stroke-width="2" stroke="black"></polyline><polyline points="502.5,90 487.5,90" fill="transparent" stroke-width="2" stroke="black"></polyline><polyline points="495,75 495,90" fill="transparent" stroke-width="2" stroke="black"></polyline></g><g class="component G"><polyline points="152.4,142.5 147.6,142.5" fill="transparent" stroke-width="2" stroke="black"></polyline><polyline points="154.95,138.75 145.05,138.75" fill="transparent" stroke-width="2" stroke="black"></polyline><polyline points="157.5,135 142.5,135" fill="transparent" stroke-width="2" stroke="black"></polyline><polyline points="150,120 150,135" fill="transparent" stroke-width="2" stroke="black"></polyline></g><g class="component G"><polyline points="497.4,187.5 492.6,187.5" fill="transparent" stroke-width="2" stroke="black"></polyline><polyline points="499.95,183.75 490.05,183.75" fill="transparent" stroke-width="2" stroke="black"></polyline><polyline points="502.5,180 487.5,180" fill="transparent" stroke-width="2" stroke="black"></polyline><polyline points="495,165 495,180" fill="transparent" stroke-width="2" stroke="black"></polyline></g><g class="component G"><polyline points="497.4,277.5 492.6,277.5" fill="transparent" stroke-width="2" stroke="black"></polyline><polyline points="499.95,273.75 490.05,273.75" fill="transparent" stroke-width="2" stroke="black"></polyline><polyline points="502.5,270 487.5,270" fill="transparent" stroke-width="2" stroke="black"></polyline><polyline points="495,255 495,270" fill="transparent" stroke-width="2" stroke="black"></polyline></g><g class="component G"><polyline points="287.4,322.5 282.6,322.5" fill="transparent" stroke-width="2" stroke="black"></polyline><polyline points="289.95,318.75 280.05,318.75" fill="transparent" stroke-width="2" stroke="black"></polyline><polyline points="292.5,315 277.5,315" fill="transparent" stroke-width="2" stroke="black"></polyline><polyline points="285,300 285,315" fill="transparent" stroke-width="2" stroke="black"></polyline></g></svg>